# xmcd CD database file
#
# Track frame offsets:
#	150
#	11250
#	31575
#	49462
#	72225
#	89225
#	109005
#	128480
#	138043
#	160518
#	178930
#	191280
#	210668
#	229368
#	243305
#	263555
#	279218
#	302410
#	316985
#
# Disc length: 4418 seconds
#
# Revision: 2
# Processed by: cddbd v1.4b41PL1 Copyright (c) Steve Scherf et al.
# Submitted via: Feurio! 1.50.2ß - http://www.feurio.com
#
DISCID=f4114013
DTITLE=Various Artist - Romantic collection Tet-a-Tet
DYEAR=1900
DGENRE=
TTITLE0=Dean Martin - Besame Mucho
TTITLE1=Tony Braxton - Un-break My Heart
TTITLE2=Nick Cave and PJ Harvey - Henry Lee
TTITLE3=Neneh Cherry and Youssou N`dour - 7 Seconds
TTITLE4=Mourandi Jiann - Space Opera
TTITLE5=Leonard Cochen - The Future
TTITLE6=Tanita Tikaram - And I Think Of You
TTITLE7=Charlie Haden - Everytime We Say Goodbye
TTITLE8=Louis Armstron and Ella Fitzgerald - Summertime
TTITLE9=Agnessa Franklin and Henry Merill - One More Kiss Dear
TTITLE10=Paul Anka - You Are My Destiny
TTITLE11=Birkin and Serge Gainsbourg - Je Taime... Moi Non Plus
TTITLE12=Patricia Kaas - Des Mensonges En Musique
TTITLE13=Fausto Papetti - Adagio Di Albioni
TTITLE14=Al Bano and Romina Power - Sharazan
TTITLE15=Shari Belafonte and Chris Norman - I Want To Be Needed
TTITLE16=Santa Esmeralda - You're My Everything
TTITLE17=Julio Iglesias - Historia De Un Amor
TTITLE18=Royal Philarmonic Orchestra - Besame Mucho
EXTD=
EXTT0=
EXTT1=
EXTT2=
EXTT3=
EXTT4=
EXTT5=
EXTT6=
EXTT7=
EXTT8=
EXTT9=
EXTT10=
EXTT11=
EXTT12=
EXTT13=
EXTT14=
EXTT15=
EXTT16=
EXTT17=
EXTT18=
PLAYORDER=
